<svg width="22" height="22" viewBox="0 0 22 22" fill="none" xmlns="http://www.w3.org/2000/svg">
<path d="M11.0003 7.33328C12.0087 7.33328 12.8337 6.50828 12.8337 5.49994C12.8337 4.49161 12.0087 3.66661 11.0003 3.66661C9.99199 3.66661 9.16699 4.49161 9.16699 5.49994C9.16699 6.50828 9.99199 7.33328 11.0003 7.33328ZM11.0003 9.16661C9.99199 9.16661 9.16699 9.99161 9.16699 10.9999C9.16699 12.0083 9.99199 12.8333 11.0003 12.8333C12.0087 12.8333 12.8337 12.0083 12.8337 10.9999C12.8337 9.99161 12.0087 9.16661 11.0003 9.16661ZM11.0003 14.6666C9.99199 14.6666 9.16699 15.4916 9.16699 16.4999C9.16699 17.5083 9.99199 18.3333 11.0003 18.3333C12.0087 18.3333 12.8337 17.5083 12.8337 16.4999C12.8337 15.4916 12.0087 14.6666 11.0003 14.6666Z" fill="black"/>
</svg>
