<svg width="122" height="35" viewBox="0 0 122 35" fill="none" xmlns="http://www.w3.org/2000/svg">
<path d="M45.9258 27.8688V7.45215H53.4547C61.0027 7.45215 64.7758 10.7703 64.7738 17.4067C64.7738 20.5859 63.744 23.1253 61.6845 25.0251C59.625 26.9248 56.8817 27.8737 53.4547 27.8717L45.9258 27.8688ZM50.7144 11.1942V24.1384H53.0844C55.1561 24.1384 56.7836 23.5405 57.9671 22.3446C59.1506 21.1488 59.7403 19.5203 59.7363 17.4592C59.7363 15.5148 59.1516 13.9835 57.9823 12.8655C56.813 11.7474 55.1702 11.1903 53.0541 11.1942H50.7144Z" fill="#25476A"/>
<path d="M86.4863 27.8688H81.2819L79.7647 23.3276H72.2236L70.7063 27.8688H65.5293L73.2645 7.45215H78.9392L86.4863 27.8688ZM78.6601 19.7955L76.378 12.9297C76.1939 12.3316 76.0749 11.7168 76.023 11.0951H75.9046C75.854 11.7 75.7298 12.2971 75.5344 12.8742L73.222 19.7955H78.6601Z" fill="#25476A"/>
<path d="M101.893 11.1942H95.824V27.8688H91.0384V11.1942H84.9995V7.44922H101.893V11.1942Z" fill="#25476A"/>
<path d="M121.154 27.8688H115.941L114.423 23.3276H106.87L105.374 27.8688H100.188L107.923 7.45215H113.598L121.154 27.8688ZM113.331 19.7955L111.049 12.9297C110.865 12.3316 110.746 11.7168 110.694 11.0951H110.575C110.525 11.7 110.401 12.2971 110.205 12.8742L107.893 19.7955H113.331Z" fill="#25476A"/>
<path d="M17.9196 11.1212H17.8013C17.7506 11.7261 17.6264 12.3233 17.431 12.9004L15.1187 19.8333H20.5567L18.2746 12.9704C18.09 12.3675 17.971 11.7478 17.9196 11.1212Z" fill="#25476A"/>
<path d="M32.7738 0H3.64153C2.67574 0 1.7495 0.368746 1.06658 1.02512C0.383662 1.6815 0 2.57174 0 3.5V31.5C0 32.4283 0.383662 33.3185 1.06658 33.9749C1.7495 34.6313 2.67574 35 3.64153 35H32.7738C33.7396 35 34.6658 34.6313 35.3488 33.9749C36.0317 33.3185 36.4153 32.4283 36.4153 31.5V3.5C36.4153 2.57174 36.0317 1.6815 35.3488 1.02512C34.6658 0.368746 33.7396 0 32.7738 0ZM23.1632 27.8979L21.6459 23.3538H14.0897L12.5936 27.8979H7.41355L15.1488 7.48126H20.8235L28.3797 27.8979H23.1632Z" fill="#25476A"/>
</svg>
