<svg width="145" height="42" viewBox="0 0 145 42" fill="none" xmlns="http://www.w3.org/2000/svg">
<path d="M54.9653 33.3541V8.91895H63.9761C73.0098 8.91895 77.5255 12.8902 77.5231 20.8328C77.5231 24.6377 76.2906 27.677 73.8258 29.9507C71.3609 32.2243 68.0777 33.3599 63.9761 33.3576L54.9653 33.3541ZM60.6965 13.3976V28.8895H63.533C66.0124 28.8895 67.9603 28.1739 69.3767 26.7427C70.7931 25.3115 71.4989 23.3625 71.4941 20.8957C71.4941 18.5685 70.7944 16.7359 69.3949 15.3978C67.9954 14.0596 66.0293 13.3929 63.4967 13.3976H60.6965Z" fill="white"/>
<path d="M103.509 33.3541H97.2804L95.4645 27.919H86.4392L84.6233 33.3541H78.4272L87.6849 8.91895H94.4766L103.509 33.3541ZM94.1425 23.6918L91.4113 15.4746C91.1909 14.7588 91.0485 14.0229 90.9863 13.2789H90.8447C90.7841 14.0029 90.6354 14.7175 90.4016 15.4082L87.6341 23.6918H94.1425Z" fill="white"/>
<path d="M124.219 13.4821H116.955V33.4387H111.227V13.4821H104V9H124.219V13.4821Z" fill="white"/>
<path d="M145 33.3541H138.761L136.945 27.919H127.905L126.114 33.3541H119.907L129.165 8.91895H135.957L145 33.3541ZM135.637 23.6918L132.906 15.4746C132.686 14.7588 132.543 14.0229 132.481 13.2789H132.339C132.279 14.0029 132.13 14.7175 131.896 15.4082L129.129 23.6918H135.637Z" fill="white"/>
<path d="M21.4462 13.3102H21.3046C21.244 14.0341 21.0953 14.7488 20.8615 15.4395L18.094 23.737H24.6024L21.8712 15.5233C21.6502 14.8017 21.5078 14.06 21.4462 13.3102Z" fill="white"/>
<path d="M39.2245 0H4.35828C3.20239 0 2.09385 0.441325 1.27651 1.22689C0.459177 2.01246 0 3.07793 0 4.18889V37.7C0 38.8109 0.459177 39.8764 1.27651 40.662C2.09385 41.4475 3.20239 41.8889 4.35828 41.8889H39.2245C40.3804 41.8889 41.4889 41.4475 42.3063 40.662C43.1236 39.8764 43.5828 38.8109 43.5828 37.7V4.18889C43.5828 3.07793 43.1236 2.01246 42.3063 1.22689C41.4889 0.441325 40.3804 0 39.2245 0ZM27.7223 33.3889L25.9063 27.9504H16.8629L15.0724 33.3889H8.87273L18.1304 8.95376H24.9221L33.9655 33.3889H27.7223Z" fill="white"/>
</svg>
