<svg width="25" height="25" viewBox="0 0 25 25" fill="none" xmlns="http://www.w3.org/2000/svg">
<path d="M12.5 22.9167C13.6459 22.9167 14.5834 21.9792 14.5834 20.8333H10.4167C10.4167 21.9792 11.3542 22.9167 12.5 22.9167ZM18.75 16.6667V11.4583C18.75 8.26041 17.0521 5.58332 14.0625 4.87499V4.16666C14.0625 3.30207 13.3646 2.60416 12.5 2.60416C11.6354 2.60416 10.9375 3.30207 10.9375 4.16666V4.87499C7.95835 5.58332 6.25002 8.24999 6.25002 11.4583V16.6667L4.16669 18.75V19.7917H20.8333V18.75L18.75 16.6667ZM16.6667 17.7083H8.33335V11.4583C8.33335 8.87499 9.90627 6.77082 12.5 6.77082C15.0938 6.77082 16.6667 8.87499 16.6667 11.4583V17.7083Z" fill="#25476A"/>
</svg>
