<svg width="25" height="25" viewBox="0 0 25 25" fill="none" xmlns="http://www.w3.org/2000/svg">
<path d="M19.9375 13.475C19.975 13.1625 20 12.8375 20 12.5C20 12.1625 19.975 11.8375 19.925 11.525L22.0375 9.875C22.225 9.725 22.275 9.45 22.1625 9.2375L20.1625 5.775C20.0375 5.55 19.775 5.475 19.55 5.55L17.0625 6.55C16.5375 6.15 15.9875 5.825 15.375 5.575L15 2.925C14.9625 2.675 14.75 2.5 14.5 2.5H10.5C10.25 2.5 10.05 2.675 10.0125 2.925L9.63751 5.575C9.02501 5.825 8.46251 6.1625 7.95001 6.55L5.46251 5.55C5.23751 5.4625 4.97501 5.55 4.85001 5.775L2.85001 9.2375C2.72501 9.4625 2.77501 9.725 2.97501 9.875L5.08751 11.525C5.03751 11.8375 5.00001 12.175 5.00001 12.5C5.00001 12.825 5.02501 13.1625 5.07501 13.475L2.96251 15.125C2.77501 15.275 2.72501 15.55 2.83751 15.7625L4.83751 19.225C4.96251 19.45 5.22501 19.525 5.45001 19.45L7.93751 18.45C8.46251 18.85 9.01251 19.175 9.62501 19.425L10 22.075C10.05 22.325 10.25 22.5 10.5 22.5H14.5C14.75 22.5 14.9625 22.325 14.9875 22.075L15.3625 19.425C15.975 19.175 16.5375 18.8375 17.05 18.45L19.5375 19.45C19.7625 19.5375 20.025 19.45 20.15 19.225L22.15 15.7625C22.275 15.5375 22.225 15.275 22.025 15.125L19.9375 13.475ZM12.5 16.25C10.4375 16.25 8.75001 14.5625 8.75001 12.5C8.75001 10.4375 10.4375 8.75 12.5 8.75C14.5625 8.75 16.25 10.4375 16.25 12.5C16.25 14.5625 14.5625 16.25 12.5 16.25Z" fill="#25476A"/>
</svg>
